<?xml version="1.0" encoding="UTF-8"?>
<svg width="37px" height="43px" viewBox="0 0 37 43" version="1.1" xmlns="http://www.w3.org/2000/svg" xmlns:xlink="http://www.w3.org/1999/xlink">
    <!-- Generator: Sketch 50.2 (55047) - http://www.bohemiancoding.com/sketch -->
    <title>Group 12</title>
    <desc>Created with Sketch.</desc>
    <defs>
        <polygon id="path-1" points="0 0 37 0 37 43 0 43"></polygon>
    </defs>
    <g id="Page-1" stroke="none" stroke-width="1" fill="none" fill-rule="evenodd">
        <g id="安全态势感知平台第二版" transform="translate(-653.000000, -29.000000)">
            <g id="Group-13" transform="translate(653.000000, 29.000000)">
                <g id="Group-12">
                    <rect id="Rectangle-11" fill="#FFFFFF" fill-rule="nonzero" x="7" y="5" width="23" height="28"></rect>
                    <g id="Group-3">
                        <mask id="mask-2" fill="white">
                            <use xlink:href="#path-1"></use>
                        </mask>
                        <g id="Clip-2"></g>
                        <path d="M18.5369127,33.5833627 L18.5369127,22.4984041 L11.2661718,22.4984041 L18.5369127,6.00077287 L18.5369127,17.0115741 L25.7338593,17.0115741 L18.5369127,33.5833627 Z M36.9809306,24.0554893 L36.9809306,7.63207794 L19.0736094,0.124116621 C19.072987,0.124116621 19.0723645,0.123491348 19.0714308,0.123178712 L19.0017137,0.0941035335 C18.8460953,0.0331394503 18.6767825,0 18.5,0 C18.3232175,0 18.1539047,0.0331394503 17.9982863,0.0941035335 L17.9285692,0.123178712 C17.9276355,0.123491348 17.927013,0.124116621 17.9263906,0.124116621 L0.0190693932,7.63207794 L0.0190693932,24.0554893 C0.0190693932,24.0554893 -0.350057465,27.6517449 2.15975618,30.9509961 C4.66925859,34.2505598 9.55878889,39.2555547 18.5,43 C27.4412111,39.2555547 32.3307414,34.2505598 34.8402438,30.9509961 C37.3500575,27.6517449 36.9809306,24.0554893 36.9809306,24.0554893 Z" id="Fill-1" fill="#37A57B" mask="url(#mask-2)"></path>
                    </g>
                </g>
            </g>
        </g>
    </g>
</svg>